<svg width="204" height="204" viewBox="0 0 204 204" fill="none" xmlns="http://www.w3.org/2000/svg">
<rect x="38" y="13" width="128" height="128" rx="12" fill="url(#paint0_linear_1_16)"/>
<rect x="38.5" y="13.5" width="127" height="127" rx="11.5" stroke="#454652" stroke-opacity="0.1"/>
<g filter="url(#filter0_d_1_16)">
<rect x="38" y="13" width="128" height="128" rx="12" fill="white" fill-opacity="0.01" shape-rendering="crispEdges"/>
</g>
<path d="M78.625 93.125V91.5C79.6667 91.3333 80.5729 91.0625 81.3438 90.6875C82.1146 90.3125 82.8854 89.9375 83.6562 89.5625C84.4271 89.1875 85.2708 88.8542 86.1875 88.5625C87.1042 88.2708 88.2188 88.125 89.5312 88.125C90.8438 88.125 91.9896 88.3021 92.9688 88.6562C93.9479 89.0104 94.9062 89.4062 95.8438 89.8438C96.7812 90.2812 97.7292 90.6875 98.6875 91.0625C99.6458 91.4375 100.75 91.625 102 91.625C103.25 91.625 104.354 91.4375 105.312 91.0625C106.271 90.6875 107.219 90.2812 108.156 89.8438C109.094 89.4062 110.062 89.0104 111.062 88.6562C112.062 88.3021 113.219 88.125 114.531 88.125C115.844 88.125 116.948 88.2708 117.844 88.5625C118.74 88.8542 119.573 89.1875 120.344 89.5625C121.115 89.9375 121.885 90.3125 122.656 90.6875C123.427 91.0625 124.333 91.3333 125.375 91.5V93.125C124.333 93 123.406 92.75 122.594 92.375C121.781 92 120.969 91.625 120.156 91.25C119.344 90.875 118.5 90.5312 117.625 90.2188C116.75 89.9062 115.708 89.75 114.5 89.75C113.333 89.75 112.271 89.9271 111.312 90.2812C110.354 90.6354 109.406 91.0312 108.469 91.4688C107.531 91.9062 106.552 92.3125 105.531 92.6875C104.51 93.0625 103.333 93.25 102 93.25C100.667 93.25 99.4896 93.0625 98.4688 92.6875C97.4479 92.3125 96.4688 91.9062 95.5312 91.4688C94.5938 91.0312 93.6562 90.6354 92.7188 90.2812C91.7812 89.9271 90.7188 89.75 89.5312 89.75C88.3438 89.75 87.3021 89.9062 86.4062 90.2188C85.5104 90.5312 84.6562 90.875 83.8438 91.25C83.0312 91.625 82.2188 92 81.4062 92.375C80.5938 92.75 79.6667 93 78.625 93.125V93.125M78.625 84V82.375C79.6667 82.2083 80.5729 81.9375 81.3438 81.5625C82.1146 81.1875 82.8854 80.8125 83.6562 80.4375C84.4271 80.0625 85.2708 79.7292 86.1875 79.4375C87.1042 79.1458 88.2188 79 89.5312 79C90.8438 79 91.9896 79.1771 92.9688 79.5312C93.9479 79.8854 94.9062 80.2812 95.8438 80.7188C96.7812 81.1562 97.7292 81.5625 98.6875 81.9375C99.6458 82.3125 100.75 82.5 102 82.5C103.25 82.5 104.354 82.3125 105.312 81.9375C106.271 81.5625 107.219 81.1562 108.156 80.7188C109.094 80.2812 110.062 79.8854 111.062 79.5312C112.062 79.1771 113.208 79 114.5 79C115.833 79 116.948 79.1458 117.844 79.4375C118.74 79.7292 119.573 80.0625 120.344 80.4375C121.115 80.8125 121.885 81.1875 122.656 81.5625C123.427 81.9375 124.333 82.2083 125.375 82.375V84C124.333 83.875 123.406 83.625 122.594 83.25C121.781 82.875 120.969 82.5 120.156 82.125C119.344 81.75 118.5 81.4062 117.625 81.0938C116.75 80.7812 115.708 80.625 114.5 80.625C113.333 80.625 112.271 80.8021 111.312 81.1562C110.354 81.5104 109.406 81.9062 108.469 82.3438C107.531 82.7812 106.552 83.1875 105.531 83.5625C104.51 83.9375 103.333 84.125 102 84.125C100.667 84.125 99.4896 83.9375 98.4688 83.5625C97.4479 83.1875 96.4688 82.7812 95.5312 82.3438C94.5938 81.9062 93.6562 81.5104 92.7188 81.1562C91.7812 80.8021 90.7188 80.625 89.5312 80.625C88.3438 80.625 87.3021 80.7812 86.4062 81.0938C85.5104 81.4062 84.6562 81.75 83.8438 82.125C83.0312 82.5 82.2188 82.875 81.4062 83.25C80.5938 83.625 79.6667 83.875 78.625 84V84M78.625 74.875V73.25C79.6667 73.0833 80.5729 72.8125 81.3438 72.4375C82.1146 72.0625 82.8854 71.6875 83.6562 71.3125C84.4271 70.9375 85.2708 70.6042 86.1875 70.3125C87.1042 70.0208 88.2188 69.875 89.5312 69.875C90.8438 69.875 91.9896 70.0521 92.9688 70.4062C93.9479 70.7604 94.9062 71.1562 95.8438 71.5938C96.7812 72.0312 97.7292 72.4375 98.6875 72.8125C99.6458 73.1875 100.75 73.375 102 73.375C103.25 73.375 104.354 73.1875 105.312 72.8125C106.271 72.4375 107.219 72.0312 108.156 71.5938C109.094 71.1562 110.062 70.7604 111.062 70.4062C112.062 70.0521 113.208 69.875 114.5 69.875C115.833 69.875 116.948 70.0208 117.844 70.3125C118.74 70.6042 119.573 70.9375 120.344 71.3125C121.115 71.6875 121.885 72.0625 122.656 72.4375C123.427 72.8125 124.333 73.0833 125.375 73.25V74.875C124.333 74.75 123.406 74.5 122.594 74.125C121.781 73.75 120.969 73.375 120.156 73C119.344 72.625 118.5 72.2812 117.625 71.9688C116.75 71.6562 115.708 71.5 114.5 71.5C113.333 71.5 112.271 71.6771 111.312 72.0312C110.354 72.3854 109.406 72.7812 108.469 73.2188C107.531 73.6562 106.552 74.0625 105.531 74.4375C104.51 74.8125 103.333 75 102 75C100.667 75 99.4896 74.8125 98.4688 74.4375C97.4479 74.0625 96.4688 73.6562 95.5312 73.2188C94.5938 72.7812 93.6562 72.3854 92.7188 72.0312C91.7812 71.6771 90.7188 71.5 89.5312 71.5C88.3438 71.5 87.3021 71.6562 86.4062 71.9688C85.5104 72.2812 84.6562 72.625 83.8438 73C83.0312 73.375 82.2188 73.75 81.4062 74.125C80.5938 74.5 79.6667 74.75 78.625 74.875V74.875M78.625 65.75V64.125C79.6667 63.9583 80.5729 63.6875 81.3438 63.3125C82.1146 62.9375 82.8854 62.5625 83.6562 62.1875C84.4271 61.8125 85.2708 61.4792 86.1875 61.1875C87.1042 60.8958 88.2188 60.75 89.5312 60.75C90.8438 60.75 91.9896 60.9271 92.9688 61.2812C93.9479 61.6354 94.9062 62.0312 95.8438 62.4688C96.7812 62.9062 97.7292 63.3125 98.6875 63.6875C99.6458 64.0625 100.75 64.25 102 64.25C103.25 64.25 104.354 64.0625 105.312 63.6875C106.271 63.3125 107.219 62.9062 108.156 62.4688C109.094 62.0312 110.062 61.6354 111.062 61.2812C112.062 60.9271 113.208 60.75 114.5 60.75C115.833 60.75 116.948 60.8958 117.844 61.1875C118.74 61.4792 119.573 61.8125 120.344 62.1875C121.115 62.5625 121.885 62.9375 122.656 63.3125C123.427 63.6875 124.333 63.9583 125.375 64.125V65.75C124.333 65.625 123.406 65.375 122.594 65C121.781 64.625 120.969 64.25 120.156 63.875C119.344 63.5 118.5 63.1562 117.625 62.8438C116.75 62.5312 115.708 62.375 114.5 62.375C113.333 62.375 112.271 62.5521 111.312 62.9062C110.354 63.2604 109.406 63.6562 108.469 64.0938C107.531 64.5312 106.552 64.9375 105.531 65.3125C104.51 65.6875 103.333 65.875 102 65.875C100.667 65.875 99.4896 65.6875 98.4688 65.3125C97.4479 64.9375 96.4688 64.5312 95.5312 64.0938C94.5938 63.6562 93.6562 63.2604 92.7188 62.9062C91.7812 62.5521 90.7188 62.375 89.5312 62.375C88.3438 62.375 87.3021 62.5312 86.4062 62.8438C85.5104 63.1562 84.6562 63.5 83.8438 63.875C83.0312 64.25 82.2188 64.625 81.4062 65C80.5938 65.375 79.6667 65.625 78.625 65.75V65.75" fill="#BCC2FF"/>
<defs>
<filter id="filter0_d_1_16" x="0" y="0" width="204" height="204" filterUnits="userSpaceOnUse" color-interpolation-filters="sRGB">
<feFlood flood-opacity="0" result="BackgroundImageFix"/>
<feColorMatrix in="SourceAlpha" type="matrix" values="0 0 0 0 0 0 0 0 0 0 0 0 0 0 0 0 0 0 127 0" result="hardAlpha"/>
<feMorphology radius="12" operator="erode" in="SourceAlpha" result="effect1_dropShadow_1_16"/>
<feOffset dy="25"/>
<feGaussianBlur stdDeviation="25"/>
<feComposite in2="hardAlpha" operator="out"/>
<feColorMatrix type="matrix" values="0 0 0 0 0 0 0 0 0 0 0 0 0 0 0 0 0 0 0.25 0"/>
<feBlend mode="normal" in2="BackgroundImageFix" result="effect1_dropShadow_1_16"/>
<feBlend mode="normal" in="SourceGraphic" in2="effect1_dropShadow_1_16" result="shape"/>
</filter>
<linearGradient id="paint0_linear_1_16" x1="38" y1="141" x2="166" y2="13" gradientUnits="userSpaceOnUse">
<stop stop-color="#0E0E0E"/>
<stop offset="1" stop-color="#2A2A2A"/>
</linearGradient>
</defs>
</svg>
