<svg width="512" height="512" viewBox="0 0 512 512" fill="none" xmlns="http://www.w3.org/2000/svg">
  <rect width="512" height="512" rx="80" fill="url(#paint0_linear)"/>
  <path d="M128 200C160 200 192 232 224 232C256 232 288 200 320 200C352 200 384 232 416 232" stroke="#BCC2FF" stroke-width="24" stroke-linecap="round" stroke-linejoin="round"/>
  <path d="M128 256C160 256 192 288 224 288C256 288 288 256 320 256C352 256 384 288 416 288" stroke="#BCC2FF" stroke-width="24" stroke-linecap="round" stroke-linejoin="round"/>
  <path d="M128 312C160 312 192 344 224 344C256 344 288 312 320 312C352 312 384 344 416 344" stroke="#BCC2FF" stroke-width="24" stroke-linecap="round" stroke-linejoin="round"/>
  <defs>
    <linearGradient id="paint0_linear" x1="0" y1="0" x2="512" y2="512" gradientUnits="userSpaceOnExpression">
      <stop stop-color="#0E0E0E"/>
      <stop offset="1" stop-color="#2A2A2A"/>
    </linearGradient>
  </defs>
</svg>
